<?xml version="1.0" encoding="UTF-8" standalone="no"?>
<svg
   xmlns:dc="http://purl.org/dc/elements/1.1/"
   xmlns:cc="http://creativecommons.org/ns#"
   xmlns:rdf="http://www.w3.org/1999/02/22-rdf-syntax-ns#"
   xmlns:svg="http://www.w3.org/2000/svg"
   xmlns="http://www.w3.org/2000/svg"
   viewBox="0 0 816 1056"
   height="1056"
   width="816"
   xml:space="preserve"
   id="svg2"
   version="1.1"><metadata
     id="metadata8"><rdf:RDF><cc:Work
         rdf:about=""><dc:format>image/svg+xml</dc:format><dc:type
           rdf:resource="http://purl.org/dc/dcmitype/StillImage" /></cc:Work></rdf:RDF></metadata><defs
     id="defs6"><clipPath
       id="clipPath18"
       clipPathUnits="userSpaceOnUse"><path
         id="path16"
         d="m 418.793,559.23 c -1.639,-0.498 -3.269,-1.036 -4.879,-1.65 v 0 c -1.229,-0.47 -2.308,-0.43 -3.206,-0.068 v 0 c -0.349,-0.072 -0.724,-0.111 -1.123,-0.111 v 0 c -2.438,0 -3.934,1.438 -4.526,3.217 v 0 c -0.83,0.246 -1.504,0.692 -2.021,1.265 v 0 c -12.192,-0.744 -24.701,-2.087 -37.45,-4.059 v 0 c 1.882,-2.93 0.547,-7.922 -4,-7.922 v 0 c -0.258,0 -0.501,0.02 -0.738,0.052 v 0 c -0.243,-0.033 -0.496,-0.052 -0.762,-0.052 v 0 c -1.48,0 -2.616,0.531 -3.416,1.343 v 0 c -11.889,-2.181 -24.264,-1.611 -35.753,-5.664 v 0 c -1.611,-0.569 -2.972,-0.307 -3.999,0.419 v 0 c 0.1,-1.625 -0.548,-3.295 -2.307,-4.415 v 0 c -8.078,-5.151 -17.537,-10.967 -25.252,-18.133 v 0 c -4.774,-8.484 -9.587,-16.943 -14.951,-25.072 v 0 c -3.24,-4.907 -10.112,-1.652 -9.139,3.853 v 0 c 1.625,9.192 6.394,17.008 12.668,23.817 v 0 c -3.892,-0.111 -6.729,4.525 -4.758,7.543 v 0 c -3.539,-1.305 -7.081,-2.649 -10.624,-4.047 v 0 C 116.548,471.892 24.419,358.716 56.781,276.757 v 0 C 89.143,194.798 233.741,175.094 379.75,232.746 v 0 c 146.008,57.653 238.139,170.831 205.776,252.789 v 0 c -19.198,48.621 -77.903,75.315 -152.964,76.958 v 0 c -4.607,-1.012 -9.175,-2.193 -13.769,-3.263 m 68.788,-68.325 c 6.445,0 6.434,-10 0,-10 v 0 c -6.446,0 -6.435,10 0,10" /></clipPath><linearGradient
       id="linearGradient34"
       spreadMethod="pad"
       gradientTransform="matrix(708.01959,0,0,-708.01959,50.30727,381.09338)"
       gradientUnits="userSpaceOnUse"
       y2="0"
       x2="1"
       y1="0"
       x1="0"><stop
         id="stop28"
         offset="0"
         style="stop-opacity:1;stop-color:#ffffff" /><stop
         id="stop30"
         offset="0.943074"
         style="stop-opacity:0;stop-color:#ffffff" /><stop
         id="stop32"
         offset="1"
         style="stop-opacity:0;stop-color:#ffffff" /></linearGradient><mask
       id="mask36"
       height="1"
       width="1"
       y="0"
       x="0"
       maskUnits="userSpaceOnUse"><g
         id="g46"><g
           id="g44"><g
             id="g42"><g
               id="g40"><path
                 id="path38"
                 style="fill:url(#linearGradient34);stroke:none"
                 d="M -32768,32767 H 32767 V -32768 H -32768 Z" /></g></g></g></g></mask><linearGradient
       id="linearGradient58"
       spreadMethod="pad"
       gradientTransform="matrix(708.01959,0,0,-708.01959,50.30727,381.09338)"
       gradientUnits="userSpaceOnUse"
       y2="0"
       x2="1"
       y1="0"
       x1="0"><stop
         id="stop52"
         offset="0"
         style="stop-opacity:1;stop-color:#3788c7" /><stop
         id="stop54"
         offset="0.943074"
         style="stop-opacity:1;stop-color:#3788c7" /><stop
         id="stop56"
         offset="1"
         style="stop-opacity:1;stop-color:#3788c7" /></linearGradient><clipPath
       id="clipPath68"
       clipPathUnits="userSpaceOnUse"><path
         id="path66"
         d="M 0,792 H 612 V 0 H 0 Z" /></clipPath><linearGradient
       id="linearGradient98"
       spreadMethod="pad"
       gradientTransform="matrix(503.28943,0,0,-503.28943,82.764244,391.46774)"
       gradientUnits="userSpaceOnUse"
       y2="0"
       x2="1"
       y1="0"
       x1="0"><stop
         id="stop86"
         offset="0"
         style="stop-opacity:1;stop-color:#fff348" /><stop
         id="stop88"
         offset="0.13312686"
         style="stop-opacity:1;stop-color:#fdc82c" /><stop
         id="stop90"
         offset="0.280899"
         style="stop-opacity:1;stop-color:#fdc82c" /><stop
         id="stop92"
         offset="0.668539"
         style="stop-opacity:1;stop-color:#f3944b" /><stop
         id="stop94"
         offset="0.88764"
         style="stop-opacity:1;stop-color:#ed6f49" /><stop
         id="stop96"
         offset="1"
         style="stop-opacity:1;stop-color:#e94a47" /></linearGradient><clipPath
       id="clipPath108"
       clipPathUnits="userSpaceOnUse"><path
         id="path106"
         d="M 0,792 H 612 V 0 H 0 Z" /></clipPath><clipPath
       id="clipPath120"
       clipPathUnits="userSpaceOnUse"><path
         id="path118"
         d="m 179.108,369 c 0,0 60.811,-147.297 43.243,-60.81 v 0 c -17.568,86.486 135.135,190.288 135.135,190.288 v 0 C 289.919,555.473 214.243,419 214.243,419 v 0 c 13.514,95.946 48.649,136.486 90.541,191.892 v 0 c 41.892,55.405 160.81,-271.622 160.81,-271.622 v 0 c 0,0 -9.46,183.784 -116.216,297.297 v 0 c -13.84,14.716 -26.95,21.12 -39.292,21.119 v 0 C 227.224,657.68 179.108,369 179.108,369" /></clipPath><linearGradient
       id="linearGradient136"
       spreadMethod="pad"
       gradientTransform="matrix(405.48001,0,0,-405.48001,177.75676,469.33011)"
       gradientUnits="userSpaceOnUse"
       y2="0"
       x2="1"
       y1="0"
       x1="0"><stop
         id="stop130"
         offset="0"
         style="stop-opacity:1;stop-color:#ffffff" /><stop
         id="stop132"
         offset="0.788988"
         style="stop-opacity:0;stop-color:#ffffff" /><stop
         id="stop134"
         offset="1"
         style="stop-opacity:0;stop-color:#ffffff" /></linearGradient><mask
       id="mask138"
       height="1"
       width="1"
       y="0"
       x="0"
       maskUnits="userSpaceOnUse"><g
         id="g148"><g
           id="g146"><g
             id="g144"><g
               id="g142"><path
                 id="path140"
                 style="fill:url(#linearGradient136);stroke:none"
                 d="M -32768,32767 H 32767 V -32768 H -32768 Z" /></g></g></g></g></mask><linearGradient
       id="linearGradient160"
       spreadMethod="pad"
       gradientTransform="matrix(405.48001,0,0,-405.48001,177.75676,469.33011)"
       gradientUnits="userSpaceOnUse"
       y2="0"
       x2="1"
       y1="0"
       x1="0"><stop
         id="stop154"
         offset="0"
         style="stop-opacity:1;stop-color:#3788c7" /><stop
         id="stop156"
         offset="0.788988"
         style="stop-opacity:1;stop-color:#3788c7" /><stop
         id="stop158"
         offset="1"
         style="stop-opacity:1;stop-color:#3788c7" /></linearGradient><linearGradient
       id="linearGradient188"
       spreadMethod="pad"
       gradientTransform="matrix(223.97379,0,0,-223.97379,245.32433,490.01935)"
       gradientUnits="userSpaceOnUse"
       y2="0"
       x2="1"
       y1="0"
       x1="0"><stop
         id="stop176"
         offset="0"
         style="stop-opacity:1;stop-color:#fff348" /><stop
         id="stop178"
         offset="0.13312686"
         style="stop-opacity:1;stop-color:#fdc82c" /><stop
         id="stop180"
         offset="0.280899"
         style="stop-opacity:1;stop-color:#fdc82c" /><stop
         id="stop182"
         offset="0.668539"
         style="stop-opacity:1;stop-color:#f3944b" /><stop
         id="stop184"
         offset="0.88764"
         style="stop-opacity:1;stop-color:#ed6f49" /><stop
         id="stop186"
         offset="1"
         style="stop-opacity:1;stop-color:#e94a47" /></linearGradient><linearGradient
       id="linearGradient216"
       spreadMethod="pad"
       gradientTransform="matrix(206.41153,0,0,-206.41153,209.83609,381.14594)"
       gradientUnits="userSpaceOnUse"
       y2="0"
       x2="1"
       y1="0"
       x1="0"><stop
         id="stop204"
         offset="0"
         style="stop-opacity:1;stop-color:#fff348" /><stop
         id="stop206"
         offset="0.13312686"
         style="stop-opacity:1;stop-color:#fdc82c" /><stop
         id="stop208"
         offset="0.280899"
         style="stop-opacity:1;stop-color:#fdc82c" /><stop
         id="stop210"
         offset="0.668539"
         style="stop-opacity:1;stop-color:#f3944b" /><stop
         id="stop212"
         offset="0.88764"
         style="stop-opacity:1;stop-color:#ed6f49" /><stop
         id="stop214"
         offset="1"
         style="stop-opacity:1;stop-color:#e94a47" /></linearGradient></defs><g
     transform="matrix(1.3333333,0,0,-1.3333333,0,1056)"
     id="g10"><g
       id="g12"><g
         clip-path="url(#clipPath18)"
         id="g14"><g
           id="g20"><g
             id="g22" /><g
             mask="url(#mask36)"
             id="g48"><g
               id="g50"><path
                 id="path60"
                 style="fill:url(#linearGradient58);stroke:none"
                 d="m 418.793,559.23 c -1.639,-0.498 -3.269,-1.036 -4.879,-1.65 v 0 c -1.229,-0.47 -2.308,-0.43 -3.206,-0.068 v 0 c -0.349,-0.072 -0.724,-0.111 -1.123,-0.111 v 0 c -2.438,0 -3.934,1.438 -4.526,3.217 v 0 c -0.83,0.246 -1.504,0.692 -2.021,1.265 v 0 c -12.192,-0.744 -24.701,-2.087 -37.45,-4.059 v 0 c 1.882,-2.93 0.547,-7.922 -4,-7.922 v 0 c -0.258,0 -0.501,0.02 -0.738,0.052 v 0 c -0.243,-0.033 -0.496,-0.052 -0.762,-0.052 v 0 c -1.48,0 -2.616,0.531 -3.416,1.343 v 0 c -11.889,-2.181 -24.264,-1.611 -35.753,-5.664 v 0 c -1.611,-0.569 -2.972,-0.307 -3.999,0.419 v 0 c 0.1,-1.625 -0.548,-3.295 -2.307,-4.415 v 0 c -8.078,-5.151 -17.537,-10.967 -25.252,-18.133 v 0 c -4.774,-8.484 -9.587,-16.943 -14.951,-25.072 v 0 c -3.24,-4.907 -10.112,-1.652 -9.139,3.853 v 0 c 1.625,9.192 6.394,17.008 12.668,23.817 v 0 c -3.892,-0.111 -6.729,4.525 -4.758,7.543 v 0 c -3.539,-1.305 -7.081,-2.649 -10.624,-4.047 v 0 C 116.548,471.892 24.419,358.716 56.781,276.757 v 0 C 89.143,194.798 233.741,175.094 379.75,232.746 v 0 c 146.008,57.653 238.139,170.831 205.776,252.789 v 0 c -19.198,48.621 -77.903,75.315 -152.964,76.958 v 0 c -4.607,-1.012 -9.175,-2.193 -13.769,-3.263 m 68.788,-68.325 c 6.445,0 6.434,-10 0,-10 v 0 c -6.446,0 -6.435,10 0,10" /></g></g></g></g></g><g
       id="g62"><g
         clip-path="url(#clipPath68)"
         id="g64"><g
           transform="translate(487.5811,480.9053)"
           id="g70"><path
             id="path72"
             style="fill:#ffffff;fill-opacity:1;fill-rule:nonzero;stroke:none"
             d="M 0,0 C -6.445,0 -6.435,10 0,10 6.445,10 6.435,0 0,0 M 80.386,10.705 C 62.634,55.663 6.663,79.515 -64.592,79.329 c -1.397,-0.34 -2.796,-0.678 -4.196,-1.004 -1.64,-0.499 -3.27,-1.035 -4.879,-1.65 -1.229,-0.47 -2.308,-0.43 -3.206,-0.068 -0.35,-0.072 -0.724,-0.111 -1.123,-0.111 -2.011,0 -3.393,0.974 -4.148,2.313 -12.658,-0.704 -25.71,-2.12 -39.046,-4.275 0.246,-2.666 -1.355,-5.538 -4.803,-5.538 -0.262,0 -0.51,0.023 -0.75,0.054 -0.24,-0.031 -0.488,-0.054 -0.75,-0.054 -1.487,0 -2.626,0.536 -3.426,1.356 -8.662,-1.59 -17.579,-1.738 -26.227,-3.257 -4.546,-1.146 -9.11,-2.365 -13.691,-3.675 -0.305,-1.038 -0.98,-2.007 -2.131,-2.74 -8.079,-5.151 -17.537,-10.967 -25.252,-18.133 -4.774,-8.484 -9.587,-16.943 -14.951,-25.071 -3.24,-4.909 -10.112,-1.653 -9.139,3.852 1.624,9.192 6.394,17.008 12.667,23.817 -2.256,-0.065 -4.164,1.457 -4.983,3.352 -133.21,-52.787 -217.591,-155.104 -188.523,-228.72 29.107,-73.715 160.946,-90.733 294.47,-38.01 133.525,52.723 218.172,155.222 189.065,228.938" /></g></g></g><g
       id="g74"><g
         id="g76"><g
           id="g82"><g
             id="g84"><path
               id="path100"
               style="fill:url(#linearGradient98);stroke:none"
               d="m 299.39,531.533 c -3.489,-2.506 -6.904,-5.178 -10.029,-8.081 v 0 c -4.774,-8.484 -9.587,-16.943 -14.951,-25.072 v 0 c -3.24,-4.907 -10.112,-1.652 -9.139,3.853 v 0 c 1.314,7.434 4.683,13.971 9.242,19.8 v 0 C 142.802,467.632 59.808,366.737 88.398,294.332 v 0 c 29.108,-73.716 162.846,-89.983 298.714,-36.335 v 0 C 522.98,311.646 609.527,414.894 580.42,488.61 v 0 c -17.527,44.389 -73.005,67.944 -144.032,67.946 v 0 c -41.801,10e-4 -88.982,-8.155 -136.998,-25.023 m 188.191,-40.628 c 6.445,0 6.434,-10 0,-10 v 0 c -6.446,0 -6.435,10 0,10" /></g></g></g></g><g
       id="g102"><g
         clip-path="url(#clipPath108)"
         id="g104"><g
           transform="translate(487.5811,480.9053)"
           id="g110"><path
             id="path112"
             style="fill:#ffffff;fill-opacity:1;fill-rule:nonzero;stroke:none"
             d="M 0,0 C -6.445,0 -6.435,10 0,10 6.445,10 6.435,0 0,0 m 55.558,8.948 c -20.037,50.746 -90.616,73.684 -176.748,64.514 -0.215,-2.309 -1.816,-4.466 -4.803,-4.466 -0.283,0 -0.549,0.026 -0.807,0.063 -0.226,-0.028 -0.448,-0.063 -0.693,-0.063 -1.481,0 -2.616,0.531 -3.416,1.344 -11.889,-2.181 -24.264,-1.611 -35.753,-5.665 -1.552,-0.547 -2.874,-0.325 -3.888,0.34 -0.033,-0.007 -0.065,-0.015 -0.098,-0.022 0.065,-1.593 -0.598,-3.217 -2.32,-4.313 -8.079,-5.151 -17.537,-10.967 -25.252,-18.133 -4.774,-8.484 -9.587,-16.943 -14.951,-25.071 -3.24,-4.909 -10.112,-1.653 -9.139,3.852 1.624,9.192 6.394,17.008 12.667,23.817 -3.708,-0.106 -6.458,4.098 -5.005,7.108 -6.643,-2.282 -13.3,-4.714 -19.965,-7.346 -131.857,-52.065 -215.725,-152.577 -187.326,-224.501 28.4,-71.925 158.314,-88.023 290.17,-35.959 C 0.089,-163.488 83.957,-62.976 55.558,8.948" /></g></g></g><g
       id="g114"><g
         clip-path="url(#clipPath120)"
         id="g116"><g
           id="g122"><g
             id="g124" /><g
             mask="url(#mask138)"
             id="g150"><g
               id="g152"><path
                 id="path162"
                 style="fill:url(#linearGradient160);stroke:none"
                 d="m 179.108,369 c 0,0 60.811,-147.297 43.243,-60.81 v 0 c -17.568,86.486 135.135,190.288 135.135,190.288 v 0 C 289.919,555.473 214.243,419 214.243,419 v 0 c 13.514,95.946 48.649,136.486 90.541,191.892 v 0 c 41.892,55.405 160.81,-271.622 160.81,-271.622 v 0 c 0,0 -9.46,183.784 -116.216,297.297 v 0 c -13.84,14.716 -26.95,21.12 -39.292,21.119 v 0 C 227.224,657.68 179.108,369 179.108,369" /></g></g></g></g></g><g
       id="g164"><g
         id="g166"><g
           id="g172"><g
             id="g174"><path
               id="path190"
               style="fill:url(#linearGradient188);stroke:none"
               d="M 311.541,634.918 C 248.027,614.649 214.243,416 214.243,416 v 0 c 0,0 24.529,62.035 58.297,115.485 v 0 c 0.029,1.383 0.711,2.714 2.29,3.59 v 0 c 11.833,18.36 24.73,35.502 38.061,48.492 v 0 c 52.703,51.351 149.852,-239.586 149.852,-239.586 v 0 c 31.059,52.922 -78.814,292.076 -143.748,292.077 v 0 c -2.558,0 -5.046,-0.371 -7.454,-1.14" /></g></g></g></g><g
       id="g192"><g
         id="g194"><g
           id="g200"><g
             id="g202"><path
               id="path218"
               style="fill:url(#linearGradient216);stroke:none"
               d="m 218.898,364.18 c -23.851,-37.038 10.825,-91.25 10.825,-91.25 v 0 l 12.867,-10.837 c 0,0 -23.132,39.387 -3.779,77.583 v 0 c 0.95,1.875 2.003,3.748 3.166,5.613 v 0 c 24.847,39.844 76.383,100.695 76.383,100.695 v 0 l 38.001,53.802 c -0.659,0.278 -1.412,0.413 -2.257,0.413 v 0 C 331.105,500.195 241.905,399.909 218.898,364.18" /></g></g></g></g></g></svg>